<?xml version="1.0" encoding="utf-8"?>
<!-- Generator: Adobe Illustrator 16.0.0, SVG Export Plug-In . SVG Version: 6.00 Build 0)  -->
<!DOCTYPE svg PUBLIC "-//W3C//DTD SVG 1.1//EN" "http://www.w3.org/Graphics/SVG/1.1/DTD/svg11.dtd">
<svg version="1.1" id="Layer_1" xmlns="http://www.w3.org/2000/svg" xmlns:xlink="http://www.w3.org/1999/xlink" x="0px" y="0px"
	 width="1077.17px" height="396.85px" viewBox="0 0 1077.17 396.85" enable-background="new 0 0 1077.17 396.85"
	 xml:space="preserve">
<g>
	<path d="M283.469,158.254c8.943-7.855,63.938-65.223,32.166-78.419c-36.592-14.398-93.087,69.681-93.087,69.681
		c-3.613,0.871-6.847,2.035-9.74,3.404c-23.966,10.061-41.298,34.244-22.023,45.043c-23.336,42.673-25.518,63.783-25.904,66.033
		c3.951,4.598,13.304,10.496,13.304,10.496c0.61-22.215,11.526-54.391,21.456-73.418c34.996,1.607,72.87-33.226,72.87-33.226
		c16.368,10.443,23.648,22.104,22.766,43.181c-1.299,31.031-30.64,79.82-77.376,66.842c-23.535-7.316-20.167-35.25-14.349-45.213
		c0,0-13.317,6.553-12.892,18.666c0.839,23.162,22.595,31.117,29.682,32.664c54.128,14.057,83.711-30.943,89.452-59.877
		C320.386,181.878,291.969,163.544,283.469,158.254z M193.49,193.223c-9.521-7.957,3.045-20.758,10.258-25.207
		c4.878-3.066,8.52-4.23,9.234-4.469C205.417,173.842,198.973,183.795,193.49,193.223z M202.445,195.946
		c7.395-13.537,16.313-26.52,22.016-35.023c5.039-1.283,8.554-2.158,13.967-2.455c10.445-0.568,20.838,1.807,28.345,5.982
		C259.856,172.985,231.401,195.981,202.445,195.946z M276.344,154.961c-0.021-0.006-20.25-9.958-43.166-7.042
		c20.667-26.793,65.768-73.527,72.892-44.541C308.662,118.276,294.386,137.336,276.344,154.961z"/>
	<path d="M819.527,159.604c4.826-1.725,12.778-9.002,13.483-13.307c0.849-5.688-6.525-10.539-10.717-9.23
		c-2.323,0.723-7.891,5.066-8.336,12.916C813.524,157.829,817.466,160.342,819.527,159.604z"/>
	<path d="M861.664,200.756c-1.014-1.761-7.653-8.761-6.481-15.812c0.391-5.949,8.812-9.502,8.812-9.502
		c4.439-1.795,6.605,1.623,6.605,1.623c1.52,1.809,2.374,1.279,2.518-0.949c-0.144-9.57-9.589-10.344-9.589-10.344
		c-12.915-1.629-17.619,12.703-17.619,12.703c-0.434,1.162-1.005,2.512-1.694,3.988c-5.768,11.281-17.14,33.027-36.923,38.941
		c-16.934,3.662,4.319-35.824,7.368-41.841c1.395-4.312-7.335-8-9.041-8.725c-1.359-0.719-2.505,0.699-3.392,2.449
		c0,0-23.468,43.332-40.31,46.685c-4.839,0.869-6.227-1.883-9.673-7.701c0,0-4.653-8.266-5.476-8.807
		c-0.604-0.59,0.675-0.715,1.355-0.82c0.681-0.006,31.463-5.238,30.844-22.212c-0.057-1.926-0.783-12.611-14.69-12.221
		c-13.305,0.057-30.761,16.564-30.761,16.564c-0.141-0.812,4.992-13.469,4.992-13.469s73.408-45.891,77.093-88.849
		c0.26-13.354-6.967-16.368-19.923-10.175c-29.479,13.334-51.41,59.721-72.599,101.641c-12.317,9.967-35.643,20.855-43.946,24.07
		c-9.521-4.719-8.718-15.58,1.188-18.133c0,0,6.711,9.576,13.581,1.377c4.793-5.994-5.781-13.014-5.781-13.014
		c-5.834-3.543-14.559,0.336-19.834,8.49c0,0-9.967,9.279-21.793,4.035c-4.18-2.139-2.323-8.945-2.323-8.945
		c2.504-6.848-1.431-16.834-5.017-16.26c-3.585,0.57-7.016,5.217-7.761,11.324c-0.746,6.109,4.259,12.238,4.259,12.238
		c-5.029,27.453-24.056,47.767-30.345,40.716c-3.875-4.59,7.249-36.095,7.771-39.162c0.519-3.062-9.646-9.551-11.007-7.48
		c-5.584,12.066-19.064,37.875-29.211,47.589c-6.627,6.475-7.806,0.742-7.806,0.742c-2.632-8.723,12.517-36.343,13.309-37.912
		c0.786-1.574,1.747-2.559,1.37-3.889c-3.218-8.312-10.641-6.605-10.641-6.605c-2.375,1.918-9.351,23.93-25.086,21.262
		c-6.532-1.107-5.916-8-5.916-8c2.02-13.686-0.577-18.689-4.658-20.48c-5.023-1.275-13.002,11.051-4.26,19.748
		c8.488,7.752-9.533,45.257-27.731,42.365c-18.195-2.9,7.643-45.115,22.41-41.154c0,0,1.8,0.559,1.09-1.875
		c-0.714-2.438-7.06-9.041-10.183-8.531c-4.314,0.615-19.189,3.365-27.564,23.365c-16.646,23.719-25.299,22.939-31.688,22.875
		c-8-0.312-12.337-14.016-12.337-14.016c23.097-3.262,29.262-13.652,31.587-20.234c2.683-7.594-0.879-16.734-11.801-17.553
		c-10.712-1.654-31.551,16.434-31.551,16.434c16.232-14.664,47.858-50.305,64.214-73.982c13.67-17.577,13.949-29.168,10.069-32.18
		c-6.96-5.402-23.16-9.065-54.363,26.844c-3.229,3.398-31.567,35.938-47.339,98.597c-3.555,4.701-10.069,12.502-15.506,14.338
		c-7.286,2.627-9.036-1.936-9.722-6.416c-2.127-12.832,10.14-32.642,11.299-35.878c1.163-3.236-11.49-8.176-11.49-8.176
		c-3.019,5.391-35.289,59.259-44.092,50.089c-5.138-6.498,16.273-41.568,16.546-43.828c0.283-2.348-12.786-6.824-14.312-4.301
		c-0.211,0.354-12.414,25.486-17.119,39.865c-4.699,14.371,5.5,17.307,5.5,17.307c17.042,5.508,38.721-22.516,41.03-26.307
		c-1.863,12.959,0.449,15.521,3.862,19.199c14.939,14.334,32.318-7.127,32.318-7.127c-1.483,8.408-2.688,17.322-3.497,26.822
		c0,0-105.414-7.719-110.221,47.15c0,0-2.451,35.602,54.708,27.504c28.9-3.289,43.639-9.186,66.035-17.359
		c0,0,19.502,34.307,54.389,20.307c11.628-5.254,22.611-16.379,12.185-41.723c67.931-25.709,116.038-26.881,131.021-25.014
		c37.009,4.611,44.729,26.439,44.547,38.117c-0.178,11.684-12.35,50.416-59.171,40.166c-35.477-8.367-28.248-35.691-25.4-41.436
		c1.267-2.555,1.442-3.793,0.452-3.738c-0.994,0.049-8.941,6.504-9.77,9.148c-0.832,2.646-4.58,10.199,4.235,21.904
		c12.562,15.432,29.191,20.154,44.429,19.807c27.354-0.623,52.539-20.186,56.466-40.057c3.772-19.094-6.271-39.238-40.886-46.928
		c-23.925-5.01-52.225-1.818-77.197,3.283c-38.743,7.25-71.227,20.627-71.227,20.627c-19.305-27.436-61.33-30.508-61.33-30.508
		c1.938-23.75,3.683-28.482,5.318-34.164c1.744-5.648,11.614-13.916,11.614-13.916s23.647-20.891,30.332-17.889
		c3.194,1.633,6.069,6.834-6.008,17.055c-11.171,9.464-26.717,9.355-27.444,9.359c-1.137-0.039-2.228,1.244-0.48,1.947
		c1.951,0.723,4.156,5.09,4.156,5.09c4.069,7.021,7.992,14.533,19.036,18.373c14.322,4.932,31.754-14.756,35.845-19.164
		c-0.723,7.176-0.134,22.186,17.312,22.547c22.939,0.475,33.753-29.557,35.15-38.265c0,0,8.079,9.541,21.14-0.605
		c0.046-0.035,0.087-0.07,0.13-0.105c-3.847,9.558-6.875,20.232-5.587,26.949c0.849,4.451,5.285,9.885,13.477,10.174
		c10.426,0.282,24.014-24.266,24.908-25.961c-2.5,21.562,13.914,25.639,25.661,18.648c9.81-6.422,20.649-22.701,24.706-39.236
		c10.208,4.857,20.831,1.068,23.373-0.826c-2.068,8.98,5.604,18.761,5.604,18.761s-8.407,4.445-20.097,11.688
		c-11.208,6.979-11.3,15.268-11.3,15.268c-0.384,14.586,13.431,16.518,13.431,16.518c21.036,2.756,33.227-11.883,33.227-11.883
		c14.497-15.486-3.409-32.861-3.409-32.861c8.894-3.984,31.193-14.714,37.227-18.724c-5.673,13.027-10.869,26.46-14.839,39.396
		c0,0,3.628,5.139,12.641,9.576c0,0,8.646-30.885,20.818-43.296c2.164-2.592,27.064-23.482,28.354-8.273
		c0.264,7.676-11.596,20.015-31.832,20.916c0,0-2.577,0.557-0.39,3.537c2.189,2.979,6.202,31.217,26.511,23.342
		c9.017-3.422,21.808-15.912,30.041-27.125c-0.987,4.135-2.189,8.711-2.062,12.818c0,0,0.349,19.059,19.781,14.012
		c17.655-4.49,34.464-31.056,38.229-37.158c1.256,4.707,7.554,14.484,7.554,14.484c-21.866,9.986-33.549,27.012-24.814,37.646
		c21.238,23.213,54.75-10.713,35.885-35.662c16.197-7.906,27.439-8.987,34.534-6.183c9.691,3.92,8.94,13.659,3.729,17.22
		C920.682,210.283,908.392,180.133,861.664,200.756z M786.135,85.114c6.03-5.395,11.854-6.559,14.196-1.93
		c11.74,26.512-58.296,77.576-58.296,77.576C760.523,112.561,779.665,91.016,786.135,85.114z M353.008,308.242
		c-59.477,4.125-50.312-28.469-50.312-28.469c8.926-41.896,95.784-34.133,95.784-34.133s-1.817,29.268,9.516,50.539
		C385.04,305.393,353.008,308.242,353.008,308.242z M467.877,280.48c0,0,13.622,28.369-10.171,37.967
		c0,0-22.636,8.818-38.855-21.924L467.877,280.48z M465.774,276.744l-48.292,16.488c-9.187-17.596-6.404-46.678-6.404-46.678
		S453.637,249.277,465.774,276.744z M423.165,188.118c0,0,18.452-72.355,61.243-98.727c6.758-4.231,12.436-2.582,10.383,5.729
		C488.194,119.442,431.545,181.542,423.165,188.118z M662.876,240.07c-13.171,4.916-15.459-4.443-14.781-8.498
		c1.45-13.527,23.757-24.623,23.757-24.623S689.184,228.979,662.876,240.07z M835.983,240.135
		c-7.678-4.301-1.605-20.172,21.394-29.814C865.631,221.709,851.426,248.344,835.983,240.135z"/>
</g>
</svg>
